<svg width="1280" height="720" xmlns="http://www.w3.org/2000/svg" xmlns:xlink="http://www.w3.org/1999/xlink" overflow="hidden"><defs><clipPath id="clip0"><rect x="0" y="0" width="1280" height="720"/></clipPath><clipPath id="clip1"><rect x="0" y="31" width="1280" height="658"/></clipPath><clipPath id="clip2"><rect x="0" y="31" width="1280" height="658"/></clipPath></defs><g clip-path="url(#clip0)"><rect x="0" y="0" width="1280" height="720" fill="#FFFFFF"/><g clip-path="url(#clip1)"><g clip-path="url(#clip2)"><path d="M81.6552 1182.9C81.6552 1162.81 85.1862 1155.09 86.5103 1172.52 87.1724 1181.57 87.3931 1181.79 95.5586 1182.46 105.71 1183.34 104.166 1187.31 93.5724 1187.31 86.731 1187.31 85.8483 1187.97 86.5103 1192.39 87.1724 1196.58 88.7172 1197.24 97.7655 1197.9 112.11 1198.79 108.8 1202.76 93.5724 1202.76L81.6552 1202.76 81.6552 1182.9Z" transform="matrix(1 0 0 -1.05453 0 1028.68)"/><path d="M126.897 1200.11C126.455 1198.57 123.366 1190.4 120.497 1181.79 116.966 1172.08 115.641 1165.68 116.966 1164.36 118.29 1163.03 120.055 1164.8 121.6 1169.21 123.586 1174.95 125.131 1176.28 130.207 1176.28 135.062 1176.28 137.269 1174.73 139.476 1170.32 142.124 1164.8 145.434 1163.03 145.876 1166.34 145.876 1167.01 143.448 1175.39 140.138 1185.1 136.386 1196.36 133.076 1202.76 131.09 1202.76 129.324 1202.76 127.338 1201.43 126.897 1200.11ZM134.179 1187.97C136.386 1181.13 136.386 1180.69 131.09 1180.69 125.131 1180.69 124.69 1182.01 128 1190.84 130.648 1197.68 130.869 1197.46 134.179 1187.97Z" transform="matrix(1 0 0 -1.05453 0 1028.68)"/><path d="M156.69 1182.9C156.69 1171.2 157.572 1163.03 158.897 1163.03 160.221 1163.03 161.103 1171.2 161.103 1182.9 161.103 1194.59 160.221 1202.76 158.897 1202.76 157.572 1202.76 156.69 1194.59 156.69 1182.9Z" transform="matrix(1 0 0 -1.05453 0 1028.68)"/><path d="M176.331 1201.88C174.345 1199.89 176.993 1163.03 178.979 1164.14 180.083 1165.02 180.966 1168.99 180.966 1173.19 180.966 1178.26 182.29 1181.35 184.497 1182.23 188.469 1183.78 190.234 1181.79 196.855 1169.66 199.062 1165.9 201.71 1163.26 202.814 1164.14 204.138 1164.8 203.034 1168.55 200.386 1173.19 196.193 1180.25 196.193 1181.13 199.503 1184.88 205.021 1190.84 203.917 1198.12 197.297 1200.55 191.779 1202.76 178.097 1203.64 176.331 1201.88ZM196.414 1196.14C201.49 1192.83 196.193 1186.21 188.469 1186.21 183.172 1186.21 181.848 1187.31 181.407 1192.39 180.745 1197.68 181.407 1198.34 186.924 1198.34 190.234 1198.34 194.648 1197.24 196.414 1196.14Z" transform="matrix(1 0 0 -1.05453 0 1028.68)"/><path d="M278.952 1199.89C278.29 1198.12 278.069 1189.52 278.51 1180.47 279.393 1159.94 283.586 1160.39 283.586 1181.13 283.586 1189.3 284.469 1195.03 285.352 1194.15 286.455 1193.05 290.648 1185.99 294.621 1178.26 304.993 1158.62 307.641 1159.5 308.524 1183.56 308.966 1195.26 308.303 1202.76 306.979 1202.76 305.655 1202.76 304.552 1195.48 304.11 1186.87L303.448 1170.76 295.062 1186.87C287.338 1202.1 281.6 1206.51 278.952 1199.89Z" transform="matrix(1 0 0 -1.05453 0 1028.68)"/><path d="M452.414 1184.22C452.414 1173.85 453.517 1164.8 454.621 1164.14 455.945 1163.48 456.828 1165.24 456.828 1168.33 456.828 1175.61 461.241 1178.04 464.772 1172.74 473.379 1160.17 477.793 1160.39 470.069 1172.97L465.214 1180.91 470.29 1186.43C472.938 1189.3 474.041 1191.72 472.717 1191.72 471.172 1191.72 467.862 1189.3 465.214 1186.21 462.566 1183.12 459.697 1180.69 458.593 1180.69 457.71 1180.69 456.828 1185.77 456.828 1191.72 456.828 1197.9 455.945 1202.76 454.621 1202.76 453.297 1202.76 452.414 1195.03 452.414 1184.22Z" transform="matrix(1 0 0 -1.05453 0 1028.68)"/><path d="M377.379 1198.34C377.379 1197.24 378.924 1196.14 380.69 1196.14 382.455 1196.14 384 1197.24 384 1198.34 384 1199.67 382.455 1200.55 380.69 1200.55 378.924 1200.55 377.379 1199.67 377.379 1198.34Z" transform="matrix(1 0 0 -1.05453 0 1028.68)"/><path d="M397.903 1196.8C397.021 1194.59 395.476 1191.94 394.152 1191.06 392.386 1189.74 392.607 1188.86 394.593 1187.97 396.138 1187.31 397.241 1183.12 397.241 1177.6 397.241 1172.52 398.345 1167.23 399.89 1165.68 403.2 1162.37 410.483 1162.15 410.483 1165.24 410.483 1166.57 408.938 1167.45 407.172 1167.45 404.745 1167.45 403.862 1170.1 403.862 1177.38 403.862 1185.32 404.524 1187.31 407.834 1187.31 411.366 1187.53 411.366 1187.53 407.834 1190.4 405.628 1191.94 403.862 1194.37 403.862 1195.7 403.862 1200.11 399.448 1200.99 397.903 1196.8Z" transform="matrix(1 0 0 -1.05453 0 1028.68)"/><path d="M323.752 1187.75C315.807 1178.92 321.545 1163.03 332.579 1163.03 342.731 1163.03 348.469 1180.69 340.745 1188.19 336.11 1192.83 328.166 1192.61 323.752 1187.75ZM338.979 1181.35C340.745 1174.29 337.655 1168.77 331.476 1167.89 326.179 1167.01 323.31 1173.63 325.297 1182.01 327.283 1189.74 336.993 1189.52 338.979 1181.35Z" transform="matrix(1 0 0 -1.05453 0 1028.68)"/><path d="M355.752 1177.6C356.414 1163.48 360.607 1160.39 361.048 1173.63 361.269 1177.82 363.255 1183.12 366.124 1185.99L371.2 1191.28 363.034 1191.06 355.09 1190.84 355.752 1177.6Z" transform="matrix(1 0 0 -1.05453 0 1028.68)"/><path d="M378.924 1190.18C378.041 1189.52 377.379 1183.56 377.379 1176.94 377.379 1168.11 378.262 1165.24 380.69 1165.24 383.338 1165.24 384 1168.11 384 1178.48 384 1190.62 382.676 1193.93 378.924 1190.18Z" transform="matrix(1 0 0 -1.05453 0 1028.68)"/><path d="M421.517 1189.52C417.103 1186.65 420.193 1184.22 425.269 1186.87 427.476 1187.97 430.566 1188.41 432.11 1187.97 436.524 1186.21 435.2 1180.69 430.124 1180.69 423.283 1180.69 417.103 1176.72 417.103 1172.08 417.103 1165.9 421.959 1163.03 431.448 1163.92L440.055 1164.8 439.393 1176.5C439.172 1183.12 438.29 1189.08 437.848 1189.96 436.303 1192.39 425.49 1192.17 421.517 1189.52ZM434.317 1173.63C433.655 1168.11 426.814 1165.68 422.841 1169.66 421.076 1171.42 421.517 1172.97 424.607 1175.39 431.007 1180.03 435.2 1179.37 434.317 1173.63Z" transform="matrix(1 0 0 -1.05453 0 1028.68)"/><path d="M486.841 1186.87C479.779 1176.72 485.297 1163.03 496.331 1163.03 499.862 1163.03 503.834 1164.58 505.379 1166.34 508.91 1170.54 506.483 1173.85 502.731 1170.1 498.759 1166.12 492.579 1167.01 489.931 1171.86 487.724 1176.06 488.166 1176.28 497.655 1176.28 506.041 1176.28 507.586 1176.94 507.586 1180.47 507.586 1191.06 492.8 1195.48 486.841 1186.87ZM503.172 1182.9C503.172 1181.57 500.303 1180.69 496.552 1180.69 489.49 1180.69 488.386 1182.68 492.579 1186.87 495.228 1189.52 503.172 1186.65 503.172 1182.9Z" transform="matrix(1 0 0 -1.05453 0 1028.68)"/><path d="M232.828 1178.48C233.49 1177.38 237.021 1176.28 240.772 1176.28 244.303 1176.28 247.172 1177.38 247.172 1178.48 247.172 1179.81 243.641 1180.69 239.228 1180.69 234.593 1180.69 231.945 1179.81 232.828 1178.48Z" transform="matrix(1 0 0 -1.05453 0 1028.68)"/><path d="M1028.41 899.09C1007.01 889.821 978.759 859.145 971.917 837.517 969.931 831.559 964.193 821.628 959.117 815.89 950.069 805.297 949.848 805.297 943.448 808.607 935.283 813.021 933.517 811.917 903.724 784.331 828.469 714.372 766.455 683.476 684.579 675.09 662.952 672.883 655.448 672.883 645.076 675.09 615.724 681.71 589.241 696.717 557.683 725.186 513.986 764.248 503.614 773.297 488.607 784.552 458.593 807.062 419.31 824.938 387.752 830.014 338.317 837.738 274.317 822.51 229.297 792.055 192.441 767.338 157.572 724.303 147.862 691.421 145.434 683.476 145.434 681.269 148.745 676.634 150.731 673.545 152.276 670.676 152.276 670.014 152.276 669.352 144.993 661.628 136.386 652.8 124.248 640.662 118.069 632.055 111.228 617.931 95.7793 586.372 94.2345 574.014 104.386 563.2 126.014 540.469 126.014 540.469 139.697 541.352 149.848 542.234 153.821 543.559 158.676 548.193 161.986 551.283 167.062 553.931 169.71 553.931 177.214 553.931 188.248 566.731 197.959 586.372 205.462 601.821 206.345 604.91 206.345 621.021 206.345 638.897 206.345 638.897 212.303 639.559 216.717 640 222.676 645.076 233.269 657.214 263.503 691.2 272.552 699.807 286.014 708.414 299.255 716.8 325.297 726.069 327.945 723.2 328.607 722.538 326.841 715.697 323.752 707.972 314.041 683.255 314.041 660.745 324.193 640L328.386 631.172 316.028 622.565C286.897 602.924 257.103 571.366 240.772 543.117 226.207 518.4 222.234 507.807 223.779 497.214 225.103 487.062 223.117 484.634 201.71 471.393 190.014 463.89 173.462 442.703 169.49 429.903 167.503 423.283 167.503 419.531 169.49 414.455 171.034 410.262 171.255 406.069 169.931 402.759 168.607 399.007 169.269 393.931 171.917 385.766 176.772 371.862 181.628 368.772 202.814 366.345 214.952 364.8 218.924 365.021 226.648 368.552 243.641 376.055 267.255 412.91 271.448 438.069 274.097 453.738 274.979 455.062 282.703 453.517 288.441 452.193 291.31 454.621 320.441 483.972 348.91 512.441 353.766 516.634 370.759 524.8 400.993 539.366 425.71 541.352 454.4 531.641 466.097 527.448 485.517 515.09 519.724 489.931 555.034 463.89 608.221 440.717 653.241 431.669 718.565 418.869 791.614 430.124 886.51 468.083 942.786 490.372 971.697 508.248 1020.47 550.621 1036.14 564.303 1080.06 611.531 1087.56 623.007 1092.63 630.731 1093.08 632.055 1090.43 639.338 1087.56 647.062 1087.56 647.283 1098.15 657.876 1104.77 664.497 1112.06 669.572 1117.13 670.897 1134.79 675.752 1168.55 707.09 1179.59 729.159 1186.43 743.062 1187.09 763.145 1181.13 774.621 1172.3 791.172 1146.26 797.793 1125.3 788.524 1104.11 779.034 1074.32 747.917 1065.93 726.069 1064.17 721.876 1057.99 713.71 1051.81 707.972 1043.2 699.807 1040.11 698.041 1037.02 699.807 1029.08 704 1024.66 701.352 999.724 678.621 974.565 655.448 936.828 628.083 909.241 612.855 885.848 600.055 820.524 575.779 817.435 578.648 816.993 579.31 828.69 585.931 843.476 593.214 877.462 610.428 906.152 630.731 934.621 658.097 958.014 680.607 995.531 723.2 1003.03 736L1007.45 743.503 1002.37 750.345 997.076 757.186 1007.89 768.883C1014.73 776.386 1022.68 782.345 1030.62 785.655 1046.73 792.497 1073.21 818.979 1083.14 838.4 1100.14 872.166 1084.03 902.841 1049.16 902.621 1042.1 902.4 1032.61 900.855 1028.41 899.09ZM1064.17 884.524C1069.24 882.097 1074.76 871.283 1074.76 864 1074.76 843.255 1037.02 801.986 1014.07 797.572 1003.7 795.586 992.221 801.766 987.366 811.697 984.055 818.538 984.055 821.186 986.262 829.793 991.338 848.552 1007.01 867.972 1027.09 880.331 1040.77 888.938 1053.13 890.262 1064.17 884.524ZM398.345 809.048C440.938 798.897 474.483 777.49 538.262 719.89 568.938 692.303 586.372 679.724 607.338 669.793 623.007 662.51 645.517 655.448 653.683 655.448 655.89 655.448 658.538 653.241 659.641 650.593 660.745 647.724 665.6 613.297 670.676 573.793 675.752 534.29 681.931 489.71 684.138 474.703 686.565 459.697 687.89 446.676 687.448 445.793 685.241 442.041 628.524 454.179 605.131 463.228 572.028 476.248 541.793 493.683 504.717 521.269 495.228 528.331 478.897 538.262 468.524 543.338L449.545 552.828 420.634 552.828C393.71 552.828 390.621 552.386 376.276 546.428 348.69 534.952 321.766 514.207 297.931 485.959 291.531 478.455 284.91 472.276 283.145 472.276 279.393 472.276 249.821 492.138 244.083 498.317 241.434 501.407 240.552 504.717 241.214 508.248 243.2 515.531 265.269 549.959 278.731 566.731 290.869 581.738 320.883 607.338 332.8 613.076 339.641 616.386 340.083 616.386 346.041 610.869 368.331 589.903 416.221 583.062 444.028 596.966 465.214 607.559 480.662 627.421 487.724 653.021 492.138 669.793 490.814 693.848 484.634 707.531 468.745 742.4 428.579 763.586 391.062 756.966 375.834 754.317 364.359 750.345 355.31 744.166 351.559 741.738 344.497 740.414 332.138 740.414 293.738 739.752 265.931 722.759 226.869 675.972 218.483 665.821 210.538 657.655 208.993 657.655 205.021 657.655 174.124 674.869 168.386 680.166L163.531 684.579 167.945 695.834C177.434 719.89 205.241 753.214 230.841 771.531 258.207 791.172 299.255 807.724 331.034 812.138 348.91 814.565 380.91 813.021 398.345 809.048ZM976.11 798.897C978.317 795.366 984.497 789.628 990.014 786.538L1000.17 780.579 993.545 774.179 987.145 767.779 973.683 781.683 960.221 795.586 964.855 800.441C970.814 806.841 971.476 806.841 976.11 798.897ZM1156.63 775.283C1179.81 766.014 1172.74 734.234 1141.19 705.986 1118.01 685.241 1101.9 681.048 1088.44 692.524 1078.51 700.69 1076.97 711.283 1083.59 724.966 1094.18 746.814 1117.35 769.103 1136.55 775.945 1146.48 779.697 1146.04 779.697 1156.63 775.283ZM1074.54 683.697C1077.41 680.166 1082.26 676.193 1085.35 675.09L1090.87 672.883 1084.69 666.483C1081.16 662.731 1077.63 659.862 1076.74 659.862 1075.86 659.862 1070.12 665.821 1063.72 673.103L1052.25 686.345 1058.65 691.641C1064.17 696.717 1065.05 696.938 1067.03 693.628 1068.36 691.862 1071.67 687.228 1074.54 683.697ZM190.897 625.876C190.676 605.352 190.234 602.483 183.834 590.345 180.083 583.062 175.448 575.117 173.683 572.69 167.945 565.186 166.621 571.145 171.697 581.517 174.345 587.034 176.552 592.993 176.552 594.759 176.552 602.262 171.917 596.966 162.428 578.207 156.69 567.393 151.172 557.903 149.848 557.021 144.552 553.931 145.434 559.228 152.276 573.793 156.028 582.4 158.676 590.124 157.793 591.007 155.586 593.214 150.731 585.931 143.007 568.717 139.034 560.552 135.062 554.152 133.738 554.593 130.428 555.917 131.752 561.655 139.255 577.986 151.393 604.469 144.331 604.248 131.09 577.766 126.897 569.6 122.483 562.759 121.379 562.759 117.186 562.759 119.172 571.807 126.897 587.034 135.724 604.469 135.724 604.69 131.531 604.69 129.986 604.69 125.352 598.29 121.6 590.345 114.759 576.662 110.345 572.248 110.345 579.31 110.345 583.283 128.883 619.476 137.931 632.938 141.241 638.014 147.421 644.414 151.614 646.841 155.807 649.49 160.662 653.903 162.428 656.552L165.738 661.848 178.538 654.786 191.117 647.945 190.897 625.876ZM244.966 477.352C264.166 464.552 265.048 463.669 261.738 457.269 260.193 453.959 258.207 446.897 257.324 441.379 255.559 430.345 244.524 408.938 232.607 393.048 218.041 374.069 212.524 376.938 226.207 396.359 234.372 407.834 236.8 415.559 230.621 410.483 228.855 408.938 222.897 401.434 217.379 393.71 207.89 380.69 200.828 375.614 200.828 382.455 200.828 383.779 205.903 391.945 212.083 400.11 218.262 408.276 222.897 415.559 222.455 416.221 220.248 418.428 214.952 414.234 207.448 404.524 192.662 385.324 189.352 381.793 187.366 383.117 184.055 385.103 184.938 387.31 197.517 404.524 204.138 413.572 209.655 422.179 209.655 423.503 209.655 429.021 204.8 425.269 193.986 411.586 187.807 403.641 181.848 397.683 180.745 398.566 178.097 400.11 180.083 403.641 195.09 423.503 201.931 432.552 207.448 440.717 207.448 441.821 207.448 446.897 200.166 442.262 193.103 432.552 185.6 422.4 180.966 418.869 180.966 423.283 180.966 424.166 183.834 429.462 187.145 434.979 195.09 447.117 210.759 461.683 222.676 467.641 227.531 470.29 232.607 474.262 233.931 476.69 236.8 481.986 238.124 482.207 244.966 477.352Z" transform="matrix(1 0 0 -1.05453 0 1028.68)"/><path d="M740.634 110.124C736.221 106.593 734.897 103.724 734.897 97.3241 734.897 87.1724 740.193 81.4345 749.462 81.8759 755.421 82.3172 755.421 82.3172 750.345 83.2 741.959 84.7448 739.31 88.0552 739.31 97.3241 739.31 106.372 745.71 113.434 752.11 111.007 754.317 110.124 754.979 110.566 753.876 112.11 751.448 116.083 747.255 115.421 740.634 110.124Z" transform="matrix(1 0 0 -1.05453 0 1028.68)"/><path d="M766.234 97.7655 765.793 81.6552 775.283 82.0965 784.552 82.3172 776.386 83.2 768.221 84.0828 767.338 98.869 766.676 113.655 766.234 97.7655Z" transform="matrix(1 0 0 -1.05453 0 1028.68)"/><path d="M793.6 99.9724C791.393 92.9103 789.186 85.8483 788.524 84.5241 788.083 82.9793 788.524 81.6552 789.628 81.6552 790.731 81.6552 792.276 83.6414 792.938 86.069 793.6 88.9379 796.028 90.4828 799.559 90.4828 803.31 90.4828 805.738 88.9379 806.621 86.069 807.283 83.6414 808.828 81.6552 809.71 81.6552 810.814 81.6552 809.49 88.7172 807.062 97.1034 804.414 105.71 801.324 112.552 799.779 112.552 798.455 112.552 795.586 106.814 793.6 99.9724ZM803.09 96.6621C803.31 94.0138 801.766 92.6897 798.897 92.6897 793.6 92.6897 793.821 92.2483 797.131 101.517 799.338 108.138 799.779 108.579 801.324 104.607 802.207 102.4 803.09 98.6483 803.09 96.6621Z" transform="matrix(1 0 0 -1.05453 0 1028.68)"/><path d="M820.966 109.241C816.993 104.386 819.641 99.9724 828.69 96.2207 832.883 94.4552 836.414 92.0276 836.414 91.1448 836.193 87.1724 832.662 84.3035 826.483 83.2L819.862 82.3172 826.703 81.8759C840.166 81.4345 842.814 93.7931 830.234 99.0897 823.172 102.4 820.745 109.021 826.041 111.007 827.586 111.89 827.807 112.331 826.262 112.331 824.938 112.552 822.51 111.007 820.966 109.241Z" transform="matrix(1 0 0 -1.05453 0 1028.68)"/><path d="M849.655 96.6621C849.655 88.0552 850.317 81.6552 851.2 82.3172 853.186 84.5241 853.407 112.552 851.421 112.552 850.317 112.552 849.655 105.49 849.655 96.6621Z" transform="matrix(1 0 0 -1.05453 0 1028.68)"/><path d="M862.234 106.372C858.924 102.841 856.276 99.3103 856.276 98.2069 856.276 95.3379 867.31 81.6552 869.738 81.6552 871.062 81.6552 869.076 85.4069 865.324 90.0414L858.703 98.6483 864.662 104.386C867.752 107.476 869.959 110.786 869.297 111.448 868.634 111.89 865.324 109.683 862.234 106.372Z" transform="matrix(1 0 0 -1.05453 0 1028.68)"/><path d="M886.29 107.697C885.628 104.828 883.641 97.9862 881.876 92.2483 880.11 86.2897 879.448 81.6552 880.331 81.6552 881.435 81.6552 882.759 83.6414 883.421 86.069 884.083 88.9379 886.51 90.4828 890.041 90.4828 893.793 90.4828 896.221 88.9379 897.103 86.069 897.766 83.6414 899.31 81.6552 900.414 81.6552 901.297 81.6552 900.193 88.7172 897.545 97.1034 893.131 112.772 888.717 116.745 886.29 107.697ZM893.572 96.6621C893.793 94.0138 892.248 92.6897 889.379 92.6897 884.083 92.6897 884.303 92.2483 887.614 101.517 889.821 108.138 890.262 108.579 891.807 104.607 892.69 102.4 893.572 98.6483 893.572 96.6621Z" transform="matrix(1 0 0 -1.05453 0 1028.68)"/><path d="M932.855 111.228C931.972 110.345 931.31 104.386 931.31 98.2069 931.31 85.4069 934.621 80.7724 942.786 82.0965 946.979 82.5379 948.083 84.3035 948.524 91.1448 949.186 97.7655 948.524 99.3103 945.435 99.3103 942.345 99.3103 942.124 98.6483 944.11 96.6621 950.731 90.0414 943.89 80.331 936.828 86.069 933.517 88.9379 932.414 100.414 934.841 106.814 936.386 111.007 942.565 111.448 946.538 107.697 948.966 105.269 949.407 105.49 948.524 108.138 947.421 111.669 935.503 113.876 932.855 111.228Z" transform="matrix(1 0 0 -1.05453 0 1028.68)"/><path d="M971.697 97.1034C971.697 88.0552 972.138 84.3035 972.579 88.9379 973.021 93.3517 973.021 100.855 972.579 105.49 972.138 109.903 971.697 106.152 971.697 97.1034Z" transform="matrix(1 0 0 -1.05453 0 1028.68)"/><path d="M1041.88 108.8C1040.77 106.372 1040.55 103.283 1041.66 101.738 1042.54 99.9724 1041.88 96.2207 1039.67 92.469 1036.36 86.731 1036.36 85.8483 1039.67 82.5379 1042.32 80.1103 1045.41 79.4483 1049.82 80.331 1055.34 81.6552 1056.44 82.9793 1056.66 88.9379 1056.88 93.7931 1056.22 94.8966 1054.9 92.6897 1051.81 87.8345 1049.38 92.0276 1049.38 101.959 1049.38 111.89 1045.41 115.2 1041.88 108.8ZM1048.28 106.152C1048.28 104.828 1047.39 103.283 1046.07 102.621 1044.97 101.959 1043.86 102.841 1043.86 104.607 1043.86 106.593 1044.97 108.138 1046.07 108.138 1047.39 108.138 1048.28 107.255 1048.28 106.152ZM1050.48 86.9517C1050.48 82.5379 1046.29 80.9931 1042.76 83.8621 1040.33 85.8483 1040.11 87.6138 1041.88 90.9241 1043.64 94.2345 1044.74 94.6759 1047.39 92.469 1049.16 91.1448 1050.48 88.7172 1050.48 86.9517Z" transform="matrix(1 0 0 -1.05453 0 1028.68)"/><path d="M1070.34 108.138C1067.03 101.959 1069.46 95.3379 1075.42 94.4552 1081.6 93.5724 1083.37 84.5241 1077.85 82.3172 1075.64 81.4345 1073.66 81.8759 1072.99 83.4207 1072.55 84.9655 1071.23 86.069 1069.9 86.069 1068.58 86.069 1068.8 84.7448 1070.34 82.7586 1071.89 80.7724 1075.42 79.4483 1077.85 79.8897 1081.6 80.331 1082.48 82.0965 1082.48 88.2759 1082.48 94.6759 1081.6 96.2207 1077.63 96.6621 1074.1 97.1034 1072.55 98.869 1072.55 102.4 1072.55 109.021 1074.54 110.566 1079.39 107.917 1081.82 106.593 1083.59 106.593 1083.59 107.917 1083.59 109.903 1078.51 112.552 1074.76 112.552 1073.66 112.552 1071.67 110.566 1070.34 108.138Z" transform="matrix(1 0 0 -1.05453 0 1028.68)"/><path d="M1149.79 110.345C1149.79 109.241 1150.9 108.138 1152 108.138 1153.32 108.138 1154.21 109.241 1154.21 110.345 1154.21 111.669 1153.32 112.552 1152 112.552 1150.9 112.552 1149.79 111.669 1149.79 110.345Z" transform="matrix(1 0 0 -1.05453 0 1028.68)"/><path d="M1162.37 111.007C1161.49 110.345 1160.83 102.841 1160.83 94.4552L1160.83 79.4483 1167.45 79.4483C1175.17 79.4483 1178.48 84.5241 1178.48 96.8828 1178.48 103.503 1177.16 106.593 1173.63 109.021 1168.33 112.772 1164.58 113.434 1162.37 111.007ZM1173.63 105.49C1175.17 103.945 1176.28 99.0897 1176.28 94.4552 1176.28 88.2759 1175.17 85.6276 1171.64 83.6414 1165.46 80.331 1163.92 83.2 1164.36 96.4414 1164.58 102.179 1165.02 107.255 1165.02 107.697 1165.68 109.241 1171.42 107.697 1173.63 105.49Z" transform="matrix(1 0 0 -1.05453 0 1028.68)"/><path d="M1185.54 109.903C1184 108.359 1182.9 102.179 1182.9 96 1182.9 83.6414 1185.54 79.4483 1193.27 79.4483 1199.23 79.4483 1202.76 85.4069 1202.76 96 1202.76 100.414 1201.66 105.931 1200.55 108.359 1197.9 112.993 1189.52 113.876 1185.54 109.903ZM1197.02 106.814C1201.43 102.621 1201.66 90.4828 1197.46 84.7448 1194.81 81.4345 1193.49 80.9931 1190.18 82.9793 1184.44 86.5103 1183.34 103.724 1188.63 107.476 1193.49 111.007 1192.83 111.007 1197.02 106.814Z" transform="matrix(1 0 0 -1.05453 0 1028.68)"/><path d="M1210.26 109.903C1209.6 109.021 1211.14 108.138 1213.57 108.138 1216.22 108.138 1218.21 109.021 1218.21 109.903 1218.21 111.007 1216.66 111.89 1214.9 111.89 1212.91 111.89 1210.92 111.007 1210.26 109.903Z" transform="matrix(1 0 0 -1.05453 0 1028.68)"/><path d="M977.655 95.7793C977.655 86.731 978.538 81.8759 979.862 82.7586 981.186 83.4207 982.069 90.0414 982.069 97.3241 982.069 104.607 981.186 110.345 979.862 110.345 978.538 110.345 977.655 103.945 977.655 95.7793Z" transform="matrix(1 0 0 -1.05453 0 1028.68)"/><path d="M1088 96C1088 87.8345 1088.88 81.6552 1090.21 81.6552 1091.53 81.6552 1092.41 84.0828 1092.41 87.1724 1092.41 90.2621 1093.52 92.6897 1094.62 92.6897 1095.94 92.6897 1096.83 90.2621 1096.83 87.1724 1096.83 84.0828 1097.93 81.6552 1099.03 81.6552 1103.01 81.6552 1101.24 92.6897 1096.83 95.3379 1094.18 97.1034 1092.41 100.634 1092.41 104.166 1092.41 107.697 1091.53 110.345 1090.21 110.345 1088.88 110.345 1088 104.166 1088 96Z" transform="matrix(1 0 0 -1.05453 0 1028.68)"/><path d="M960.883 95.1172C961.545 94.0138 960 92.6897 957.572 92.0276 951.393 90.4828 952.938 82.9793 959.559 82.0965 963.752 81.4345 964.414 82.3172 964.414 89.1586 964.414 93.5724 963.31 97.1034 961.986 97.1034 960.883 97.1034 960.221 96.2207 960.883 95.1172ZM962.207 87.1724C962.207 85.4069 960.662 83.8621 958.897 83.8621 955.366 83.8621 954.483 86.5103 957.131 88.9379 959.559 91.5862 962.207 90.7034 962.207 87.1724Z" transform="matrix(1 0 0 -1.05453 0 1028.68)"/><path d="M988.028 95.7793C987.145 94.8966 986.483 91.3655 986.483 87.8345 986.483 83.2 987.586 81.6552 990.676 81.6552 993.103 81.6552 995.752 82.7586 996.634 84.0828 997.517 85.8483 996.634 86.069 993.324 84.9655 990.897 84.3035 988.69 84.5241 988.69 85.6276 988.69 86.731 990.676 88.2759 993.324 88.9379 995.972 89.6 997.517 91.5862 997.076 93.131 995.972 96.4414 990.455 97.9862 988.028 95.7793ZM993.103 92.6897C993.103 91.5862 992.662 90.4828 992.221 90.4828 991.559 90.4828 990.455 91.5862 989.793 92.6897 989.131 94.0138 989.572 94.8966 990.676 94.8966 992 94.8966 993.103 94.0138 993.103 92.6897Z" transform="matrix(1 0 0 -1.05453 0 1028.68)"/><path d="M1002.15 88.9379C1002.59 81.2138 1002.59 81.2138 1003.48 87.1724 1004.14 90.7034 1005.68 94.4552 1007.01 95.3379 1008.77 96.4414 1008.33 97.1034 1005.9 97.1034 1002.81 97.1034 1001.93 95.3379 1002.15 88.9379Z" transform="matrix(1 0 0 -1.05453 0 1028.68)"/><path d="M1106.76 94.0138C1106.1 92.0276 1105.21 89.1586 1104.77 87.3931 1103.45 83.2 1109.19 78.5655 1113.6 80.331 1118.46 82.0965 1116.91 95.7793 1111.61 96.6621 1109.63 97.1034 1107.42 95.7793 1106.76 94.0138ZM1114.04 87.8345C1113.6 84.9655 1112.5 82.7586 1111.17 82.7586 1110.07 82.7586 1108.74 84.9655 1108.3 87.8345 1107.86 91.1448 1108.74 92.6897 1111.17 92.6897 1113.6 92.6897 1114.48 91.1448 1114.04 87.8345Z" transform="matrix(1 0 0 -1.05453 0 1028.68)"/><path d="M1126.18 95.5586C1124.19 94.8966 1123.53 89.8207 1123.75 79.8897 1123.75 71.7241 1124.41 68.1931 1124.86 71.9448 1125.52 76.5793 1127.28 79.4483 1130.15 80.1103 1132.36 80.7724 1134.34 82.5379 1134.34 83.8621 1134.34 86.069 1133.68 86.069 1131.26 84.0828 1129.05 82.0965 1127.72 82.0965 1126.62 83.8621 1124.19 87.8345 1127.28 93.3517 1131.26 91.8069 1133.46 90.9241 1134.34 91.5862 1133.9 93.131 1132.8 96.2207 1129.93 97.1034 1126.18 95.5586Z" transform="matrix(1 0 0 -1.05453 0 1028.68)"/><path d="M1016.5 86.2897C1017.6 79.4483 1016.94 76.1379 1014.95 74.8138 1012.52 73.269 1012.52 72.8276 1015.39 72.8276 1017.6 72.8276 1020.03 76.8 1022.23 83.8621 1024.22 90.0414 1025.1 94.8966 1024 94.8966 1023.12 94.8966 1021.57 92.6897 1020.69 90.0414L1019.14 84.9655 1017.16 90.4828C1015.83 94.4552 1015.61 93.3517 1016.5 86.2897Z" transform="matrix(1 0 0 -1.05453 0 1028.68)"/></g></g></g></svg>