<?xml version="1.0" standalone="no"?>
<!DOCTYPE svg PUBLIC "-//W3C//DTD SVG 20010904//EN"
 "http://www.w3.org/TR/2001/REC-SVG-20010904/DTD/svg10.dtd">
<svg version="1.0" xmlns="http://www.w3.org/2000/svg"
 width="1080.000000pt" height="1080.000000pt" viewBox="0 0 1080.000000 1080.000000"
 preserveAspectRatio="xMidYMid meet">

<g transform="translate(0.000000,1080.000000) scale(0.100000,-0.100000)"
fill="#000000" stroke="none">
<path d="M7363 9310 c-245 -44 -470 -261 -533 -517 -36 -149 -36 -366 2 -555
11 -53 10 -60 -21 -140 -44 -112 -78 -160 -121 -171 -73 -18 -188 -61 -252
-93 -166 -84 -243 -103 -668 -170 -169 -26 -193 -34 -220 -65 -9 -11 -49 -26
-105 -38 -125 -27 -168 -44 -239 -95 -74 -53 -142 -125 -278 -295 -56 -69
-134 -164 -173 -211 -39 -47 -118 -141 -175 -210 -148 -179 -168 -199 -235
-229 -41 -19 -74 -43 -100 -75 -22 -26 -72 -80 -111 -119 -75 -77 -103 -138
-89 -194 13 -55 86 -173 116 -188 16 -9 35 -28 44 -44 9 -19 28 -34 52 -42 21
-6 50 -22 66 -35 58 -48 156 -38 252 27 75 51 149 157 195 281 27 72 177 270
379 502 142 163 230 246 311 295 47 28 67 26 85 -8 11 -22 24 -31 55 -36 27
-5 40 -12 38 -21 -5 -24 -421 -480 -569 -624 -84 -81 -119 -134 -119 -180 0
-11 -15 -41 -34 -67 -41 -58 -140 -230 -162 -281 -9 -20 -31 -80 -50 -132 -19
-52 -64 -153 -99 -225 -54 -111 -85 -158 -210 -315 -81 -102 -153 -198 -162
-214 -20 -38 -11 -80 27 -123 16 -18 30 -39 30 -45 0 -6 -20 -34 -45 -63 -45
-53 -45 -53 -137 -69 -279 -50 -467 -95 -718 -173 -165 -51 -269 -73 -343 -73
-29 0 -88 -8 -132 -17 -107 -22 -146 -21 -234 11 -138 49 -247 29 -314 -58
-65 -86 -109 -232 -171 -576 -38 -209 -50 -448 -26 -528 44 -143 232 -169 353
-49 59 59 125 195 207 429 44 121 83 225 88 230 5 5 55 15 113 24 57 8 127 21
154 29 28 8 118 19 200 25 83 6 191 15 240 20 92 10 335 31 595 50 209 16 396
38 465 56 76 19 148 62 237 142 38 35 75 61 81 58 111 -46 152 -29 240 105 69
103 237 307 261 315 12 4 29 -5 55 -29 97 -93 431 -362 515 -416 68 -43 90
-40 139 14 22 25 46 45 52 45 6 0 32 -22 58 -48 52 -53 56 -72 37 -187 -6 -33
-14 -132 -20 -220 -12 -204 -55 -481 -86 -562 -14 -35 -33 -102 -43 -150 -23
-108 -25 -113 -72 -189 -61 -96 -89 -166 -104 -260 -8 -49 -21 -94 -30 -103
-14 -14 -102 -16 -828 -16 -777 0 -820 1 -997 22 -518 62 -616 59 -675 -27
-34 -49 -37 -137 -6 -198 70 -137 375 -268 745 -317 54 -7 103 -18 108 -23 5
-5 -2 -30 -19 -62 -39 -75 -43 -162 -12 -226 78 -163 235 -214 409 -133 76 35
111 71 135 140 21 58 19 139 -5 200 -10 29 -17 55 -15 59 10 16 86 20 520 26
248 3 454 8 459 11 11 7 1757 5 1764 -2 3 -3 -4 -24 -16 -48 -11 -23 -26 -71
-33 -107 -29 -158 61 -272 244 -310 110 -22 208 14 272 102 69 93 83 224 34
326 -12 23 -19 48 -16 55 2 6 66 27 142 45 152 36 226 64 329 125 178 103 233
219 163 341 -12 22 -33 48 -47 58 -31 23 -121 48 -172 48 -33 0 -343 -43 -393
-54 -53 -13 -337 -35 -470 -38 l-150 -3 -31 63 c-17 34 -39 70 -47 80 -27 29
-185 89 -312 117 -131 30 -335 91 -349 105 -4 4 6 54 23 113 17 57 31 118 31
135 0 17 24 104 54 194 30 90 69 210 86 268 17 58 51 168 75 245 126 408 163
577 144 664 -10 48 -32 77 -210 284 -36 42 -70 89 -75 105 -5 16 -55 78 -110
138 -246 263 -256 276 -251 309 8 46 146 365 178 410 81 113 167 249 249 391
128 225 175 299 192 302 9 2 27 -19 46 -55 52 -97 126 -179 414 -462 285 -280
407 -418 479 -544 110 -192 144 -239 234 -321 120 -110 130 -116 190 -116 56
0 146 41 165 75 6 11 25 29 42 40 93 59 68 256 -53 435 -58 84 -118 153 -184
207 -33 28 -80 76 -105 107 -25 32 -96 122 -158 199 -62 78 -143 185 -180 237
-37 52 -85 115 -108 140 -51 55 -93 122 -168 262 -56 104 -57 109 -45 143 11
30 10 49 -8 133 -30 140 -115 441 -169 595 -60 172 -61 177 -32 203 44 41 100
64 156 64 76 0 200 28 248 55 53 31 117 101 148 163 21 42 36 56 87 83 93 50
104 77 84 216 -6 41 -2 69 20 145 70 238 77 277 73 388 -4 87 -9 116 -32 169
-78 182 -219 306 -416 367 -69 21 -109 27 -210 30 -69 1 -148 -1 -177 -6z
m657 -575 c0 -42 22 -47 64 -14 43 34 53 15 37 -78 -13 -75 -24 -119 -75 -298
-24 -83 -26 -95 -15 -156 14 -80 6 -100 -54 -130 -55 -28 -75 -46 -97 -90 -28
-53 -108 -137 -154 -161 -30 -16 -69 -22 -156 -28 -122 -7 -164 -20 -216 -63
-18 -15 -36 -27 -40 -27 -5 0 -26 18 -49 39 -88 85 -240 172 -353 201 -42 11
-68 23 -70 33 -2 8 13 47 33 86 l36 72 87 -7 c101 -8 172 4 249 42 64 31 72
50 37 101 -23 34 -25 46 -22 108 8 168 125 279 229 218 30 -18 59 -67 59 -101
0 -72 38 -68 131 13 41 35 128 111 194 169 66 58 126 105 133 106 7 0 12 -13
12 -35z m-1125 -880 c138 -36 311 -157 369 -258 27 -47 114 -316 176 -542 23
-82 50 -179 61 -214 10 -35 19 -70 19 -78 0 -19 -69 -49 -290 -127 -102 -36
-206 -73 -231 -82 -25 -10 -52 -15 -61 -12 -22 9 -139 271 -198 443 -51 150
-68 183 -89 171 -27 -17 8 -171 90 -389 79 -212 139 -307 194 -307 36 0 36
-25 1 -72 -47 -61 -167 -269 -209 -361 -20 -43 -80 -137 -133 -209 -100 -135
-190 -307 -252 -480 -31 -89 -24 -87 -153 -62 -237 44 -548 148 -698 232 -218
121 -437 381 -458 542 -5 38 -3 41 104 152 60 62 163 174 228 248 66 74 153
171 194 215 119 128 310 350 416 485 55 69 131 160 170 203 86 96 100 120 80
137 -11 9 -29 -3 -96 -67 -68 -65 -291 -326 -365 -427 -25 -34 -108 -56 -129
-35 -10 11 -14 82 -17 302 -3 268 -2 290 15 302 10 7 68 20 130 29 371 56 533
96 712 177 214 96 303 114 420 84z m-1377 -363 c9 -7 14 -62 19 -213 7 -226 3
-249 -45 -249 -15 0 -42 -9 -60 -20 -55 -34 -300 -285 -443 -455 -204 -242
-255 -313 -291 -406 -25 -66 -43 -94 -97 -151 -65 -69 -149 -128 -184 -128
-10 0 -31 7 -47 15 -42 22 -41 69 3 127 39 51 87 66 87 26 0 -13 -7 -32 -15
-42 -8 -11 -15 -28 -15 -38 0 -35 30 -18 54 31 14 27 42 63 62 79 25 21 35 36
31 47 -6 14 -9 14 -36 0 -40 -20 -70 -19 -104 4 -38 25 -109 130 -105 155 5
33 42 31 81 -3 19 -17 39 -31 45 -31 11 0 72 102 72 120 0 18 -19 11 -55 -22
-36 -31 -37 -31 -67 -14 -16 10 -52 19 -81 20 -27 0 -52 6 -54 12 -7 22 48 72
119 107 57 29 83 49 118 94 41 52 177 211 190 223 3 3 46 55 95 115 190 234
374 451 406 482 62 57 170 102 299 122 3 0 11 -3 18 -7z m2016 -916 c34 -79
114 -201 253 -382 426 -555 401 -525 567 -681 129 -121 243 -343 221 -430 -6
-26 -7 -27 -20 -9 -8 10 -17 42 -21 72 -7 60 -26 95 -43 79 -8 -8 -6 -34 4
-89 21 -108 20 -146 -3 -146 -20 0 -28 21 -52 130 -15 66 -27 85 -45 70 -10
-8 -8 -30 11 -103 29 -112 29 -127 6 -127 -14 0 -25 21 -47 93 -21 65 -35 93
-47 95 -25 5 -23 -25 8 -103 25 -62 26 -95 5 -95 -5 0 -53 51 -106 113 -70 80
-110 138 -142 202 -24 50 -61 113 -82 140 -95 125 -388 433 -605 635 -55 51
-123 120 -152 154 -61 73 -178 270 -171 289 4 12 201 89 322 127 22 7 44 16
50 21 5 5 21 9 35 9 24 0 31 -8 54 -64z m-3264 -283 c0 -3 -34 -38 -75 -79
-56 -56 -77 -71 -81 -59 -16 40 24 102 87 133 36 18 69 20 69 5z m20 -90 c0
-9 -11 -30 -24 -47 -13 -17 -33 -50 -45 -73 -24 -48 -37 -53 -52 -20 -14 30 0
65 47 116 37 42 74 54 74 24z m58 -75 c17 -17 15 -36 -7 -66 -10 -15 -26 -48
-36 -74 -19 -52 -38 -60 -56 -27 -15 29 1 82 41 137 32 45 39 49 58 30z m681
-255 c85 -145 242 -315 365 -397 69 -46 177 -96 304 -142 170 -62 454 -134
525 -134 62 0 109 -22 143 -68 16 -21 86 -96 157 -169 71 -72 127 -138 125
-146 -1 -8 -108 -122 -235 -253 -128 -131 -251 -264 -273 -294 -87 -118 -84
-116 -111 -104 -74 34 -549 439 -549 468 0 20 195 192 290 256 64 43 90 66 88
78 -8 37 -95 5 -221 -80 -130 -88 -411 -387 -523 -556 -70 -106 -102 -142
-126 -142 -27 0 -104 41 -176 94 -35 26 -164 147 -287 269 -200 198 -223 224
-213 242 6 11 50 72 98 135 200 264 265 373 345 580 76 197 195 419 225 420 9
0 31 -26 49 -57z m1785 -1269 c53 -63 111 -137 128 -164 29 -47 31 -53 25
-127 -6 -83 -111 -472 -212 -783 -29 -91 -65 -204 -79 -252 -42 -141 -61 -178
-90 -178 -47 0 -279 71 -313 95 -15 11 -15 19 -4 86 31 178 51 329 51 389 0
36 5 94 10 130 22 147 30 268 21 292 -5 14 -35 53 -66 86 -31 34 -55 69 -53
78 3 17 329 358 411 431 26 23 53 40 61 37 7 -3 57 -57 110 -120z m-2285 -155
c80 -78 176 -167 214 -197 37 -31 67 -63 67 -72 0 -18 -136 -139 -173 -153
-91 -36 -257 -55 -1022 -118 -66 -5 -161 -17 -212 -25 -51 -9 -143 -17 -204
-18 l-112 -1 -14 50 c-16 55 -22 214 -10 257 4 17 16 29 30 32 102 21 309 74
410 106 144 45 341 90 550 125 82 14 161 32 175 39 15 8 49 37 77 65 27 28 56
51 63 51 8 0 80 -64 161 -141z m-1890 -240 c19 -8 22 -14 17 -37 -27 -124 -29
-168 -12 -260 17 -94 38 -156 56 -167 19 -12 10 -55 -44 -218 -87 -264 -149
-389 -217 -438 -64 -45 -161 -25 -197 42 -20 36 -9 263 22 453 56 339 120 556
182 607 40 33 129 42 193 18z m351 -116 c0 -55 7 -124 16 -158 8 -33 18 -70
21 -82 6 -26 0 -28 -142 -47 -140 -19 -148 -15 -165 82 -14 79 -9 237 8 254
13 13 169 46 225 47 l37 1 0 -97z m3291 -978 c29 -16 178 -56 254 -69 70 -12
77 -16 72 -39 -22 -94 -60 -214 -73 -228 -40 -45 -246 -52 -336 -11 -42 18
-48 25 -48 50 0 38 66 280 81 298 14 17 14 17 50 -1z m-105 -407 c58 -27 81
-32 168 -36 90 -4 110 -1 179 22 l79 26 86 -29 c48 -17 163 -49 257 -71 93
-23 197 -54 232 -70 53 -24 66 -35 84 -73 16 -33 20 -54 15 -80 -18 -95 -114
-113 -550 -104 -369 8 -546 28 -652 72 -48 20 -68 65 -61 139 7 91 61 236 87
236 4 0 38 -14 76 -32z m2310 -279 c42 -20 64 -55 64 -101 0 -31 -37 -93 -72
-123 -44 -38 -213 -116 -318 -148 -201 -61 -302 -70 -760 -67 -1104 7 -2458
-6 -2675 -26 -91 -8 -410 11 -595 37 -265 36 -438 92 -578 187 -92 62 -119
143 -66 193 25 23 32 24 152 23 118 0 265 -12 424 -35 121 -17 786 -31 1323
-27 l530 3 40 -24 c115 -68 277 -93 720 -111 198 -8 263 -7 370 5 212 25 231
30 283 83 l45 47 196 6 c187 6 502 44 691 84 100 20 177 18 226 -6z m-653
-533 c18 -7 45 -28 62 -45 27 -29 30 -40 33 -109 3 -69 1 -83 -25 -132 -36
-71 -91 -101 -182 -101 -121 -1 -211 81 -211 191 0 58 38 138 86 180 33 28 39
30 120 30 50 0 98 -6 117 -14z m-3227 -28 c66 -45 106 -142 89 -218 -4 -17
-26 -51 -48 -75 -73 -75 -201 -94 -280 -41 -44 30 -86 110 -87 165 0 51 35
119 78 149 76 55 185 63 248 20z"/>
<path d="M7908 8544 c-21 -6 -32 -34 -15 -39 37 -11 126 -14 133 -4 16 27 -67
58 -118 43z"/>
<path d="M7391 8439 c-26 -28 -30 -109 -6 -109 8 0 15 9 15 20 0 11 7 37 15
57 19 46 6 64 -24 32z"/>
<path d="M7891 8394 c-37 -47 -20 -127 24 -110 25 9 56 69 53 101 -4 42 -47
47 -77 9z"/>
<path d="M2840 4116 c-59 -12 -77 -39 -30 -44 34 -4 105 22 105 38 0 18 -12
19 -75 6z"/>
<path d="M2838 4013 c-43 -5 -70 -29 -47 -44 26 -16 134 12 127 34 -5 13 -25
16 -80 10z"/>
<path d="M2853 3913 c-40 -5 -59 -26 -39 -42 10 -8 26 -9 56 -2 47 11 66 24
56 40 -7 11 -13 11 -73 4z"/>
<path d="M6256 2944 c-26 -72 -28 -104 -8 -104 5 0 14 6 19 13 17 20 55 146
48 157 -16 25 -34 5 -59 -66z"/>
<path d="M6381 2968 c-33 -88 -44 -139 -33 -150 8 -8 15 -9 22 -2 14 14 50
123 50 151 0 30 -28 31 -39 1z"/>
<path d="M6496 2952 c-3 -5 -15 -34 -26 -66 -22 -59 -21 -86 4 -86 14 0 56
106 56 142 0 18 -24 25 -34 10z"/>
<path d="M8350 2319 c-90 -41 -311 -109 -399 -124 -121 -21 -237 -24 -1156
-29 -748 -5 -1006 -8 -1940 -21 -570 -9 -846 14 -1035 86 -159 60 -200 70
-200 50 0 -26 171 -100 315 -136 242 -62 508 -69 1755 -45 371 7 977 12 1345
11 702 -2 861 5 997 40 111 28 341 113 378 139 64 46 23 65 -60 29z"/>
<path d="M7680 1812 c-49 -24 -76 -80 -60 -127 22 -66 95 -93 160 -60 41 21
60 53 60 103 0 35 -6 49 -29 73 -35 34 -78 38 -131 11z m98 -44 c20 -20 14
-50 -15 -80 -45 -47 -103 -32 -103 27 0 45 87 84 118 53z"/>
<path d="M4428 1781 c-29 -26 -33 -35 -33 -80 0 -42 5 -55 28 -78 49 -50 149
-26 182 43 24 51 1 91 -72 128 -46 23 -68 20 -105 -13z m106 -27 c34 -13 38
-41 10 -73 -45 -54 -128 -33 -107 26 16 46 53 64 97 47z"/>
</g>
</svg>
